# xmcd
#
# Track frame offsets:
#	150
#	11713
#	23715
#	34704
#	48193
#	60797
#	73487
#	92597
#	106970
#	120007
#	132982
#	146265
#	158342
#	170844
#	184238
#	197784
#	209733
#	222046
#	234892
#	250729
#	268531
#	281901
#
# Disc length: 3968 seconds
#
# Revision: 0
# Processed by: cddbd v1.5.2PL0 Copyright (c) Steve Scherf et al.
# Submitted via: audiograbber 1.83.01
#
DISCID=310f7e16
DTITLE=varios - amores
DYEAR=1900
DGENRE=
TTITLE0=los chones
TTITLE1=lass mulas de moreno
TTITLE2=el mechon
TTITLE3=candela verde
TTITLE4=el ahualulco
TTITLE5=el ahualulco
TTITLE6=cara sucia
TTITLE7=mi amorcito
TTITLE8=diferente
TTITLE9=no le falta ni le sobra
TTITLE10=bota la bota
TTITLE11=la abeja miope
TTITLE12=guantanamera
TTITLE13=cenizas y fuego
TTITLE14=la roncona
TTITLE15=la mujer de chon
TTITLE16=tamarindo
TTITLE17=el tao tao
TTITLE18=como me duele
TTITLE19=tengo ganas
TTITLE20=y me he olvidado de ti
TTITLE21=camaron pelao
EXTD=
EXTT0=
EXTT1=
EXTT2=
EXTT3=
EXTT4=
EXTT5=
EXTT6=
EXTT7=
EXTT8=
EXTT9=
EXTT10=
EXTT11=
EXTT12=
EXTT13=
EXTT14=
EXTT15=
EXTT16=
EXTT17=
EXTT18=
EXTT19=
EXTT20=
EXTT21=
PLAYORDER=
